<svg version="1.0" xmlns="http://www.w3.org/2000/svg"
 width="1280.000000pt" height="640.000000pt" viewBox="0 0 1280.000000 640.000000"
 preserveAspectRatio="xMidYMid meet">
<g transform="translate(0.000000,640.000000) scale(0.100000,-0.100000)"
fill="#FFFFFFFF" stroke="none">
<path d="M2535 4316 c-52 -17 -81 -32 -395 -206 -579 -322 -869 -449 -1557
-681 -414 -139 -458 -156 -486 -184 -9 -8 -33 -21 -54 -28 -21 -7 -38 -19 -38
-27 0 -21 90 -62 250 -113 460 -148 680 -222 837 -281 339 -127 697 -294 1108
-517 344 -186 435 -225 457 -197 39 50 -138 255 -377 435 -342 258 -774 460
-1280 599 -69 19 -136 34 -149 34 -13 0 -22 2 -19 5 3 3 149 -1 324 -9 877
-42 1775 -56 3839 -63 1759 -5 3260 4 4500 27 2064 39 3286 97 3298 155 9 46
-752 85 -2278 116 -847 16 -3635 23 -4910 10 -2049 -20 -3615 -57 -4445 -105
-129 -8 -236 -13 -238 -11 -2 1 21 8 50 15 183 43 481 150 686 246 318 149
615 354 805 554 85 89 147 178 147 211 0 13 -23 32 -33 28 -1 0 -20 -6 -42
-13z"/>
</g>
</svg>
