<svg width="35" height="35" viewBox="0 0 35 35" fill="none" xmlns="http://www.w3.org/2000/svg">
<g clip-path="url(#clip0_3054_5342)">
<path d="M17.5 0L18.5074 2.13569L19.7854 0.149671L20.5049 2.39474L22.0304 0.598684L22.4507 2.91859L24.1949 1.32977L24.31 3.68997L26.25 2.34293L26.0543 4.69737L28.1554 3.61513L27.6546 5.92352L29.8766 5.12336L29.0765 7.34539L31.3849 6.84457L30.3026 8.94572L32.6571 8.75L31.31 10.69L33.6702 10.8051L32.0814 12.5493L34.4013 12.9696L32.6053 14.4951L34.8503 15.2146L32.8643 16.4926L35 17.5L32.8643 18.5074L34.8503 19.7854L32.6053 20.5049L34.4013 22.0304L32.0814 22.4507L33.6702 24.1949L31.31 24.31L32.6571 26.25L30.3026 26.0543L31.3849 28.1554L29.0765 27.6546L29.8766 29.8766L27.6546 29.0765L28.1554 31.3849L26.0543 30.3026L26.25 32.6571L24.31 31.31L24.1949 33.6702L22.4507 32.0814L22.0304 34.4013L20.5049 32.6053L19.7854 34.8503L18.5074 32.8643L17.5 35L16.4926 32.8643L15.2146 34.8503L14.4951 32.6053L12.9696 34.4013L12.5493 32.0814L10.8051 33.6702L10.69 31.31L8.75 32.6571L8.94572 30.3026L6.84457 31.3849L7.34539 29.0765L5.12336 29.8766L5.92352 27.6546L3.61513 28.1554L4.69737 26.0543L2.34293 26.25L3.68997 24.31L1.32977 24.1949L2.91859 22.4507L0.598684 22.0304L2.39474 20.5049L0.149671 19.7854L2.13569 18.5074L0 17.5L2.13569 16.4926L0.149671 15.2146L2.39474 14.4951L0.598684 12.9696L2.91859 12.5493L1.32977 10.8051L3.68997 10.69L2.34293 8.75L4.69737 8.94572L3.61513 6.84457L5.92352 7.34539L5.12336 5.12336L7.34539 5.92352L6.84457 3.61513L8.94572 4.69737L8.75 2.34293L10.69 3.68997L10.8051 1.32977L12.5493 2.91859L12.9696 0.598684L14.4951 2.39474L15.2146 0.149671L16.4926 2.13569L17.5 0Z" fill="#FF0420"/>
<path fill-rule="evenodd" clip-rule="evenodd" d="M15.8035 16.458C15.9589 16.458 16.0913 16.5847 16.0913 16.7458C16.0913 17.5345 16.7303 18.1792 17.5189 18.1792C18.3133 18.1792 18.9523 17.5345 18.9523 16.7458C18.9523 16.5847 19.0789 16.458 19.2401 16.458C19.3956 16.458 19.528 16.5847 19.528 16.7458C19.528 17.8511 18.6299 18.7491 17.5189 18.7491C16.4137 18.7491 15.5156 17.8511 15.5156 16.7458C15.5156 16.5847 15.6423 16.458 15.8035 16.458Z" fill="white"/>
<path d="M22.6743 13.4131L22.8643 13.8966C23.037 14.3284 23.3709 14.668 23.8026 14.835L24.2862 15.0249L23.8026 15.2207C23.3709 15.3876 23.037 15.7272 22.8643 16.1532L22.6743 16.6368L22.4844 16.1532C22.3174 15.7272 21.9778 15.3876 21.5518 15.2207L21.0625 15.0249L21.5518 14.835C21.9778 14.668 22.3174 14.3284 22.4844 13.8966L22.6743 13.4131Z" fill="white"/>
<path d="M12.3657 13.4131L12.5557 13.8966C12.7227 14.3284 13.0623 14.668 13.4883 14.835L13.9776 15.0249L13.4883 15.2207C13.0623 15.3876 12.7227 15.7272 12.5557 16.1532L12.3657 16.6368L12.17 16.1532C12.0031 15.7272 11.6634 15.3876 11.2375 15.2207L10.7539 15.0249L11.2375 14.835C11.6634 14.668 12.0031 14.3284 12.17 13.8966L12.3657 13.4131Z" fill="white"/>
</g>
<defs>
<clipPath id="clip0_3054_5342">
<rect width="35" height="35" fill="white"/>
</clipPath>
</defs>
</svg>
