<svg width="1300" height="1300" viewBox="0 0 1300 1300" fill="none" xmlns="http://www.w3.org/2000/svg">
<g clip-path="url(#clip0_560_6124)">
<path d="M650.503 12.1406L782.824 155.677L969.185 97.531L1012.01 287.997L1202.48 330.822L1144.33 517.183L1287.87 649.503L1144.33 781.824L1202.48 968.185L1012.01 1011.01L969.185 1201.48L782.824 1143.33L650.503 1286.87L518.183 1143.33L331.822 1201.48L288.997 1011.01L98.531 968.185L156.677 781.824L13.1406 649.503L156.677 517.183L98.531 330.822L288.997 287.997L331.822 97.531L518.183 155.677L650.503 12.1406Z" fill="#FF0420"/>
<path fill-rule="evenodd" clip-rule="evenodd" d="M591.098 641.014C602.031 641.014 610.893 649.875 610.893 660.809C610.893 682.676 628.62 700.399 650.487 700.399C672.354 700.399 690.077 682.676 690.077 660.809C690.077 649.875 698.942 641.014 709.875 641.014C720.806 641.014 729.671 649.875 729.671 660.809C729.671 704.54 694.217 739.993 650.487 739.993C606.753 739.993 571.303 704.54 571.303 660.809C571.303 649.875 580.164 641.014 591.098 641.014ZM402.045 618.547C412.961 618.547 421.809 609.698 421.809 598.783C421.809 576.952 439.506 559.255 461.337 559.255C483.168 559.255 500.865 576.952 500.865 598.783C500.865 609.698 509.714 618.547 520.629 618.547C531.545 618.547 540.393 609.698 540.393 598.783C540.393 555.121 504.999 519.727 461.337 519.727C417.676 519.727 382.281 555.121 382.281 598.783C382.281 609.698 391.13 618.547 402.045 618.547ZM918.692 598.783C918.692 555.121 883.298 519.727 839.636 519.727C795.975 519.727 760.58 555.121 760.58 598.783C760.58 609.698 769.429 618.547 780.344 618.547C791.259 618.547 800.108 609.698 800.108 598.783C800.108 576.952 817.805 559.255 839.636 559.255C861.467 559.255 879.164 576.952 879.164 598.783C879.164 609.698 888.013 618.547 898.928 618.547C909.843 618.547 918.692 609.698 918.692 598.783Z" fill="white"/>
</g>
<defs>
<clipPath id="clip0_560_6124">
<rect width="1300" height="1300" fill="white"/>
</clipPath>
</defs>
</svg>
