<svg width="2000" height="2000" viewBox="0 0 2000 2000" fill="none" xmlns="http://www.w3.org/2000/svg">
<g clip-path="url(#clip0_3833_2417)">
<rect width="2000" height="2000" fill="#FFF7F1"/>
<path d="M1517.96 948.662C1518.07 950.218 1518.3 951.884 1518.52 953.44C1519.96 969.327 1520.74 985.659 1520.74 1001.66C1520.74 1291.97 1284.52 1528.17 994.198 1528.17C703.872 1528.17 467.656 1291.97 467.656 1001.66C467.656 711.349 703.872 475.146 994.198 475.146C1151.64 475.146 1299.64 544.807 1400.08 666.241C1401.19 667.575 1402.19 668.908 1403.19 670.13L1478.63 594.803C1357.97 451.259 1181.75 369.044 994.198 369.044C645.318 369.044 361.547 652.798 361.547 1001.66C361.547 1350.52 645.318 1634.27 994.198 1634.27C1343.08 1634.27 1626.85 1350.52 1626.85 1001.66C1626.85 983.993 1626.07 966.216 1624.52 948.551H1517.96V948.662Z" fill="#2C3F2D"/>
<path d="M1425.52 952.551H1115.64L1334.52 733.68L1264.64 663.686L1045.64 882.668V573.027H946.755V882.668L727.761 663.686L657.762 733.68L876.757 952.551H567.098V1051.54H946.755V1439.95H1045.64V1051.54H1425.52V952.551Z" fill="#2C3F2D"/>
<path d="M1020.75 1776.82H971.754V1825.81H1020.75V1776.82Z" fill="#2C3F2D"/>
<path d="M301.405 587.089L276.905 629.521L319.339 654.019L343.839 611.587L301.405 587.089Z" fill="#2C3F2D"/>
<path d="M1680.62 576.422L1638.19 600.92L1662.69 643.352L1705.12 618.854L1680.62 576.422Z" fill="#2C3F2D"/>
<path d="M994.087 1955.8C467.989 1955.8 40 1527.84 40 1001.77C40 475.702 467.989 47.6262 994.087 47.6262C1520.18 47.6262 1948.17 475.59 1948.17 1001.77C1948.17 1527.95 1520.18 1955.8 994.087 1955.8ZM994.087 69.8466C480.322 69.8466 62.2217 487.923 62.2217 1001.77C62.2217 1515.61 480.322 1933.58 994.087 1933.58C1507.85 1933.58 1925.95 1515.5 1925.95 1001.77C1925.95 488.034 1507.96 69.8466 994.087 69.8466Z" fill="#2C3F2D"/>
<path d="M462.476 513.059L364.607 430.882L396.336 393.094C397.135 392.142 398.075 391.116 399.154 390.014C400.227 388.828 401.39 387.719 402.644 386.686C407.713 382.213 413.136 379.388 418.913 378.213C424.682 376.954 430.435 377.188 436.17 378.914C441.944 380.594 447.391 383.584 452.511 387.883C459.896 394.084 464.672 401.416 466.837 409.878C469.002 418.34 467.744 426.785 463.061 435.214L460.966 439.365L433.689 471.852L470.865 503.068L462.476 513.059ZM512.239 453.793L456.204 439.654L460.581 426.989L521.883 442.307L512.239 453.793ZM424.174 463.863L447.286 436.337C447.97 435.522 448.724 434.532 449.546 433.368C450.369 432.205 451.104 431.007 451.753 429.775C453.843 425.813 454.763 421.911 454.512 418.07C454.299 414.183 453.226 410.539 451.292 407.138C449.395 403.692 446.929 400.694 443.894 398.145C440.858 395.596 437.479 393.686 433.757 392.415C430.027 391.06 426.23 390.614 422.365 391.077C418.538 391.495 414.854 393.076 411.314 395.82C410.212 396.672 409.182 397.622 408.224 398.672C407.22 399.683 406.376 400.597 405.691 401.412L382.579 428.938L424.174 463.863Z" fill="#2C3F2D"/>
<path d="M718.238 343.886C711.632 346.796 705.558 348.049 700.014 347.646C694.525 347.219 689.8 345.518 685.839 342.544C681.878 339.569 678.872 335.753 676.821 331.097C674.723 326.332 673.882 321.854 674.298 317.662C674.745 313.393 676.143 309.448 678.491 305.827C680.894 302.183 684.038 298.826 687.923 295.757C691.886 292.719 696.369 289.613 701.371 286.44C706.404 283.189 711.361 280.133 716.243 277.271C721.154 274.332 725.428 271.706 729.064 269.394L725.986 273.853C722.333 265.118 717.828 259.441 712.472 256.822C707.117 254.203 700.08 254.814 691.363 258.653C685.353 261.3 680.859 264.896 677.883 269.439C674.96 273.959 673.948 279.512 674.845 286.099L661.728 287.804C660.274 279.07 661.624 271.202 665.781 264.2C669.937 257.197 676.861 251.561 686.553 247.293C694.566 243.763 702.029 242.286 708.942 242.862C715.884 243.359 721.772 245.938 726.604 250.598C728.808 252.666 730.764 255.198 732.472 258.195C734.18 261.193 735.749 264.316 737.18 267.564L761.184 322.061L750.544 326.747L740.85 304.737L744.509 304.677C744.846 313.515 742.744 321.293 738.204 328.012C733.665 334.731 727.009 340.023 718.238 343.886ZM715.075 332.963C720.652 330.507 725.084 327.359 728.371 323.519C731.657 319.68 733.81 315.467 734.828 310.881C735.823 306.24 735.733 301.56 734.56 296.841C733.969 293.739 732.962 290.498 731.537 287.117C730.089 283.682 728.995 281.125 728.256 279.447L733.842 279.799C730.019 282.129 725.845 284.614 721.319 287.254C716.847 289.87 712.464 292.544 708.172 295.275C703.934 297.982 700.189 300.634 696.936 303.23C694.756 305.031 692.787 307.094 691.032 309.419C689.252 311.69 688.069 314.215 687.483 316.994C686.951 319.75 687.377 322.698 688.76 325.838C689.881 328.383 691.589 330.572 693.884 332.406C696.232 334.216 699.16 335.286 702.667 335.616C706.229 335.922 710.365 335.038 715.075 332.963Z" fill="#2C3F2D"/>
<path d="M1008.55 283.882C1003.16 284.949 997.829 285.336 992.566 285.044C987.363 284.752 982.701 283.578 978.581 281.522C974.52 279.467 971.448 276.299 969.363 272.017C967.685 268.449 966.777 264.859 966.638 261.249C966.558 257.58 966.544 253.408 966.593 248.734L967.527 160.97L980.483 161.108L979.555 248.34C979.512 252.363 979.506 255.735 979.536 258.457C979.626 261.121 980.222 263.494 981.324 265.576C983.412 269.563 986.759 271.965 991.365 272.783C996.031 273.602 1001.8 273.486 1008.68 272.435L1008.55 283.882ZM946.626 198.555L946.745 187.374L1009.57 188.042L1009.45 199.224L946.626 198.555Z" fill="#2C3F2D"/>
<path d="M1235.65 343.163C1227.18 339.213 1220.71 333.912 1216.23 327.259C1211.82 320.631 1209.48 313.112 1209.22 304.702C1208.96 296.292 1210.97 287.502 1215.25 278.332C1219.67 268.84 1225.18 261.423 1231.79 256.08C1238.39 250.737 1245.62 247.614 1253.49 246.71C1261.4 245.83 1269.54 247.34 1277.91 251.239C1286.49 255.239 1292.88 260.635 1297.09 267.427C1301.33 274.166 1303.29 281.934 1302.97 290.73C1302.66 299.527 1300 308.957 1294.98 319.02L1282.91 313.396L1284.86 309.214C1289.9 297.853 1291.42 288.216 1289.43 280.303C1287.49 272.416 1282.07 266.398 1273.17 262.248C1263.84 257.899 1255.27 257.592 1247.46 261.327C1239.7 265.087 1233.21 272.571 1227.98 283.779C1222.88 294.718 1221.39 304.367 1223.5 312.727C1225.69 321.057 1231.34 327.347 1240.45 331.596C1246.67 334.496 1252.75 335.599 1258.69 334.906C1264.7 334.185 1270.31 331.742 1275.52 327.575L1284.55 336.975C1277.6 342.936 1269.79 346.446 1261.14 347.504C1252.57 348.534 1244.07 347.087 1235.65 343.163ZM1222.26 285.127L1226.87 275.233L1293.23 306.165L1288.62 316.058L1222.26 285.127Z" fill="#2C3F2D"/>
<path d="M1461.58 479.465C1455.91 472.562 1452.78 465.257 1452.19 457.549C1451.65 449.803 1453.25 442.205 1457.01 434.754C1460.76 427.303 1466.34 420.535 1473.75 414.45C1481.11 408.403 1488.79 404.237 1496.79 401.951C1504.83 399.712 1512.55 399.606 1519.96 401.635C1527.37 403.663 1533.85 408.06 1539.41 414.825C1545.12 421.773 1548.24 429.014 1548.76 436.548C1549.29 444.081 1547.59 451.482 1543.69 458.75C1539.87 466.026 1534.21 472.744 1526.71 478.904C1519.35 484.951 1511.7 489.205 1503.77 491.665C1495.88 494.088 1488.27 494.372 1480.92 492.518C1473.63 490.627 1467.18 486.276 1461.58 479.465ZM1471.82 472.775C1476.14 478.032 1480.99 481.323 1486.37 482.648C1491.74 483.973 1497.37 483.64 1503.24 481.651C1509.15 479.624 1514.97 476.263 1520.68 471.567C1526.49 466.797 1530.91 461.745 1533.95 456.41C1537.04 451.038 1538.44 445.605 1538.14 440.11C1537.87 434.662 1535.62 429.355 1531.37 424.19C1527.01 418.887 1522.11 415.569 1516.65 414.236C1511.19 412.903 1505.52 413.231 1499.65 415.22C1493.82 417.256 1488.11 420.565 1482.54 425.147C1476.92 429.767 1472.54 434.782 1469.4 440.192C1466.35 445.61 1464.93 451.103 1465.14 456.673C1465.35 462.242 1467.58 467.609 1471.82 472.775ZM1483.59 502.048L1539.33 456.243L1538.43 455.146L1581.42 419.82L1589.76 429.968L1491.02 511.099L1483.59 502.048Z" fill="#2C3F2D"/>
<path d="M1661.57 801.494L1781.67 757.825L1798.53 804.197C1798.95 805.365 1799.37 806.692 1799.79 808.178C1800.28 809.699 1800.66 811.261 1800.93 812.864C1802.26 819.49 1802 825.599 1800.13 831.189C1798.33 836.815 1795.26 841.68 1790.89 845.785C1786.55 849.945 1781.24 853.167 1774.96 855.451C1765.89 858.747 1757.16 859.217 1748.74 856.861C1740.33 854.505 1733.65 849.192 1728.69 840.923L1726.14 837.033L1711.65 797.166L1666.02 813.754L1661.57 801.494ZM1688.01 874.222L1728.27 832.764L1737.05 842.887L1693.14 888.317L1688.01 874.222ZM1723.32 792.92L1735.61 826.699C1735.97 827.7 1736.45 828.847 1737.05 830.141C1737.64 831.435 1738.31 832.671 1739.05 833.849C1741.44 837.64 1744.36 840.387 1747.81 842.091C1751.28 843.85 1754.98 844.742 1758.89 844.768C1762.82 844.849 1766.65 844.212 1770.38 842.857C1774.1 841.503 1777.45 839.532 1780.41 836.944C1783.45 834.391 1785.73 831.326 1787.26 827.747C1788.81 824.224 1789.29 820.243 1788.68 815.805C1788.49 814.425 1788.18 813.058 1787.76 811.703C1787.38 810.328 1787.01 809.14 1786.65 808.14L1774.37 774.361L1723.32 792.92Z" fill="#2C3F2D"/>
<path d="M1710.31 1109.38C1711.09 1102.21 1713.04 1096.32 1716.16 1091.72C1719.27 1087.18 1723.11 1083.94 1727.67 1082C1732.22 1080.05 1737.03 1079.36 1742.09 1079.91C1747.26 1080.47 1751.56 1081.99 1754.99 1084.44C1758.46 1086.96 1761.18 1090.15 1763.14 1093.99C1765.09 1097.89 1766.43 1102.3 1767.14 1107.19C1767.79 1112.15 1768.24 1117.58 1768.49 1123.5C1768.79 1129.48 1768.96 1135.3 1768.99 1140.96C1769.08 1146.69 1769.22 1151.7 1769.4 1156.01L1767.08 1151.11C1776.47 1152.31 1783.64 1151.25 1788.59 1147.92C1793.53 1144.59 1796.52 1138.19 1797.56 1128.73C1798.27 1122.2 1797.4 1116.51 1794.96 1111.66C1792.5 1106.87 1788.2 1103.21 1782.05 1100.7L1787.13 1088.49C1795.42 1091.59 1801.56 1096.7 1805.54 1103.8C1809.53 1110.9 1810.95 1119.71 1809.8 1130.24C1808.85 1138.94 1806.4 1146.15 1802.44 1151.84C1798.54 1157.61 1793.36 1161.42 1786.91 1163.27C1784.02 1164.15 1780.85 1164.57 1777.4 1164.56C1773.95 1164.54 1770.46 1164.33 1766.93 1163.95L1707.73 1157.49L1708.99 1145.93L1732.9 1148.54L1731.13 1151.74C1723.3 1147.61 1717.62 1141.9 1714.07 1134.61C1710.52 1127.32 1709.27 1118.91 1710.31 1109.38ZM1721.35 1112.11C1720.68 1118.16 1721.19 1123.58 1722.88 1128.34C1724.56 1133.11 1727.13 1137.08 1730.59 1140.25C1734.11 1143.44 1738.21 1145.7 1742.89 1147.04C1745.87 1148.08 1749.18 1148.83 1752.82 1149.29C1756.52 1149.75 1759.28 1150.08 1761.1 1150.28L1758 1154.94C1757.9 1150.46 1757.83 1145.61 1757.81 1140.37C1757.78 1135.19 1757.66 1130.05 1757.44 1124.97C1757.21 1119.95 1756.79 1115.38 1756.16 1111.26C1755.7 1108.47 1754.89 1105.74 1753.76 1103.06C1752.68 1100.38 1751.09 1098.09 1748.97 1096.19C1746.85 1094.36 1744.08 1093.25 1740.67 1092.88C1737.91 1092.58 1735.16 1092.96 1732.42 1094.03C1729.68 1095.16 1727.29 1097.16 1725.25 1100.03C1723.21 1102.96 1721.9 1106.99 1721.35 1112.11Z" fill="#2C3F2D"/>
<path d="M1617.11 1390.8C1618.88 1385.6 1621.21 1380.79 1624.1 1376.38C1626.95 1372.02 1630.3 1368.57 1634.14 1366.03C1637.95 1363.54 1642.23 1362.46 1646.98 1362.8C1650.91 1363.13 1654.47 1364.14 1657.67 1365.82C1660.89 1367.59 1664.51 1369.66 1668.53 1372.04L1744.07 1416.73L1737.47 1427.88L1662.39 1383.46C1658.93 1381.41 1656.01 1379.72 1653.64 1378.39C1651.29 1377.13 1648.93 1376.46 1646.58 1376.38C1642.08 1376.19 1638.33 1377.89 1635.32 1381.47C1632.28 1385.1 1629.49 1390.16 1626.96 1396.63L1617.11 1390.8ZM1721.97 1379.84L1731.59 1385.53L1699.6 1439.61L1689.98 1433.91L1721.97 1379.84Z" fill="#2C3F2D"/>
<path d="M1452.23 1557.84C1459.89 1552.47 1467.71 1549.52 1475.71 1548.97C1483.66 1548.46 1491.34 1550.2 1498.75 1554.18C1506.16 1558.16 1512.77 1564.3 1518.58 1572.58C1524.58 1581.16 1528.25 1589.64 1529.58 1598.03C1530.9 1606.42 1529.99 1614.25 1526.84 1621.51C1523.65 1628.81 1518.27 1635.1 1510.71 1640.4C1502.95 1645.83 1495.08 1648.67 1487.1 1648.92C1479.14 1649.21 1471.44 1647.03 1463.98 1642.36C1456.51 1637.69 1449.68 1630.66 1443.47 1621.29L1454.38 1613.65L1457.02 1617.43C1464.35 1627.47 1471.93 1633.61 1479.78 1635.84C1487.58 1638.11 1495.5 1636.42 1503.54 1630.79C1511.98 1624.88 1516.53 1617.61 1517.2 1608.98C1517.82 1600.38 1514.59 1591.02 1507.49 1580.89C1500.57 1571 1492.96 1564.88 1484.66 1562.53C1476.36 1560.26 1468.08 1562.01 1459.84 1567.78C1454.22 1571.72 1450.23 1576.43 1447.86 1581.92C1445.48 1587.49 1444.79 1593.57 1445.79 1600.16L1433.14 1603.28C1431.45 1594.28 1432.32 1585.76 1435.72 1577.74C1439.12 1569.8 1444.62 1563.17 1452.23 1557.84ZM1509.18 1575.26L1515.45 1584.2L1455.48 1626.21L1449.22 1617.27L1509.18 1575.26Z" fill="#2C3F2D"/>
<path d="M1221.21 1685.35C1230.03 1683.89 1237.92 1684.83 1244.89 1688.17C1251.87 1691.57 1257.65 1696.76 1262.22 1703.74C1266.8 1710.72 1269.87 1718.94 1271.44 1728.39C1272.99 1737.79 1272.76 1746.52 1270.74 1754.59C1268.66 1762.68 1264.89 1769.42 1259.43 1774.82C1253.97 1780.22 1246.92 1783.64 1238.28 1785.07C1229.41 1786.54 1221.58 1785.62 1214.79 1782.31C1208.01 1778.99 1202.44 1773.83 1198.1 1766.81C1193.71 1759.86 1190.72 1751.6 1189.14 1742.03C1187.58 1732.63 1187.72 1723.88 1189.55 1715.78C1191.4 1707.74 1194.96 1701 1200.24 1695.57C1205.53 1690.2 1212.52 1686.79 1221.21 1685.35ZM1221.89 1697.56C1215.18 1698.67 1209.9 1701.23 1206.07 1705.22C1202.23 1709.22 1199.71 1714.25 1198.49 1720.33C1197.29 1726.47 1197.3 1733.18 1198.5 1740.48C1199.73 1747.89 1201.9 1754.25 1204.99 1759.55C1208.1 1764.91 1212.11 1768.84 1217.02 1771.32C1221.87 1773.82 1227.59 1774.52 1234.19 1773.43C1240.96 1772.3 1246.29 1769.71 1250.17 1765.65C1254.06 1761.59 1256.61 1756.52 1257.82 1750.44C1258.97 1744.37 1258.96 1737.78 1257.78 1730.66C1256.59 1723.48 1254.43 1717.18 1251.32 1711.76C1248.15 1706.4 1244.1 1702.43 1239.17 1699.82C1234.25 1697.22 1228.48 1696.47 1221.89 1697.56ZM1190.66 1693.11L1202.45 1764.29L1203.85 1764.06L1212.95 1818.95L1199.99 1821.1L1179.1 1695.03L1190.66 1693.11Z" fill="#2C3F2D"/>
<path d="M803.856 1687.34L778.498 1812.59L730.136 1802.8C728.919 1802.56 727.568 1802.22 726.084 1801.8C724.53 1801.43 722.999 1800.94 721.492 1800.33C715.139 1798.02 710.065 1794.61 706.27 1790.09C702.405 1785.63 699.859 1780.47 698.631 1774.6C697.345 1768.73 697.366 1762.52 698.693 1755.96C700.606 1746.51 704.761 1738.81 711.156 1732.86C717.552 1726.91 725.571 1723.98 735.213 1724.06L739.86 1723.91L781.437 1732.33L791.07 1684.75L803.856 1687.34ZM728.008 1671.99L742.392 1727.96L729.177 1730.17L713.309 1669.01L728.008 1671.99ZM778.972 1744.51L743.745 1737.38C742.701 1737.17 741.471 1736.98 740.056 1736.81C738.641 1736.65 737.237 1736.57 735.845 1736.59C731.366 1736.65 727.5 1737.71 724.246 1739.77C720.934 1741.81 718.247 1744.5 716.186 1747.82C714.066 1751.14 712.613 1754.74 711.827 1758.62C711.04 1762.51 710.979 1766.39 711.643 1770.27C712.237 1774.19 713.661 1777.74 715.916 1780.91C718.114 1784.07 721.264 1786.55 725.367 1788.35C726.642 1788.91 727.969 1789.36 729.349 1789.7C730.718 1790.09 731.924 1790.4 732.967 1790.61L768.195 1797.74L778.972 1744.51Z" fill="#2C3F2D"/>
<path d="M515.721 1568.39C521.436 1572.8 525.441 1577.53 527.739 1582.6C529.99 1587.62 530.756 1592.58 530.038 1597.48C529.32 1602.39 527.407 1606.85 524.298 1610.88C521.118 1615 517.587 1617.88 513.707 1619.52C509.744 1621.17 505.61 1621.83 501.307 1621.5C496.958 1621.13 492.506 1619.97 487.953 1618.03C483.389 1616 478.518 1613.55 473.338 1610.68C468.076 1607.81 463.021 1604.92 458.174 1602C453.243 1599.09 448.893 1596.6 445.123 1594.51L450.511 1595.08C444.588 1602.47 441.757 1609.14 442.019 1615.09C442.28 1621.05 446.182 1626.94 453.723 1632.76C458.922 1636.77 464.229 1639 469.643 1639.44C475.01 1639.84 480.371 1638.07 485.727 1634.14L493.497 1644.84C486.523 1650.29 478.967 1652.87 470.83 1652.57C462.692 1652.27 454.431 1648.88 446.047 1642.41C439.114 1637.07 434.248 1631.22 431.447 1624.87C428.564 1618.54 428.012 1612.13 429.793 1605.66C430.555 1602.74 431.844 1599.81 433.659 1596.87C435.474 1593.94 437.466 1591.07 439.635 1588.26L476.013 1541.11L485.217 1548.21L470.525 1567.26L468.723 1564.07C476.323 1559.55 484.159 1557.67 492.231 1558.45C500.303 1559.22 508.133 1562.53 515.721 1568.39ZM507.641 1576.39C502.817 1572.67 497.932 1570.28 492.988 1569.23C488.044 1568.18 483.315 1568.31 478.8 1569.61C474.25 1570.95 470.182 1573.27 466.599 1576.56C464.158 1578.56 461.793 1580.99 459.505 1583.86C457.181 1586.78 455.459 1588.96 454.339 1590.41L451.976 1585.34C455.851 1587.58 460.03 1590.06 464.513 1592.77C468.95 1595.45 473.394 1598.02 477.845 1600.48C482.249 1602.91 486.369 1604.93 490.205 1606.54C492.83 1607.6 495.583 1608.34 498.464 1608.77C501.31 1609.24 504.093 1609.07 506.814 1608.26C509.488 1607.41 511.874 1605.63 513.97 1602.91C515.669 1600.71 516.775 1598.16 517.288 1595.27C517.754 1592.34 517.293 1589.26 515.905 1586.02C514.471 1582.74 511.716 1579.54 507.641 1576.39Z" fill="#2C3F2D"/>
<path d="M324.181 1342.13C327.698 1346.36 330.587 1350.85 332.847 1355.62C335.079 1360.33 336.278 1364.98 336.443 1369.58C336.581 1374.13 335.268 1378.35 332.504 1382.22C330.173 1385.4 327.456 1387.92 324.351 1389.77C321.167 1391.59 317.511 1393.6 313.383 1395.79L235.861 1436.95L229.785 1425.5L306.837 1384.6C310.39 1382.71 313.355 1381.1 315.731 1379.78C318.027 1378.42 319.826 1376.76 321.128 1374.8C323.63 1371.06 324.139 1366.97 322.654 1362.53C321.142 1358.05 318.28 1353.03 314.069 1347.5L324.181 1342.13ZM278.865 1437.33L268.989 1442.57L239.526 1387.07L249.402 1381.83L278.865 1437.33Z" fill="#2C3F2D"/>
<path d="M267.623 1114.34C268.207 1123.67 266.646 1131.89 262.942 1139C259.234 1146.05 253.748 1151.7 246.486 1155.95C239.223 1160.19 230.543 1162.63 220.446 1163.27C209.995 1163.92 200.844 1162.63 192.994 1159.38C185.144 1156.14 178.941 1151.28 174.386 1144.81C169.828 1138.28 167.26 1130.41 166.683 1121.2C166.092 1111.75 167.772 1103.55 171.724 1096.6C175.616 1089.66 181.5 1084.23 189.376 1080.29C197.251 1076.36 206.807 1074.19 218.045 1073.79L218.877 1087.07L214.271 1087.36C201.886 1088.37 192.695 1091.65 186.698 1097.18C180.698 1102.65 178.005 1110.29 178.618 1120.09C179.262 1130.37 183.091 1138.04 190.108 1143.11C197.12 1148.13 206.797 1150.25 219.138 1149.48C231.184 1148.72 240.373 1145.42 246.705 1139.57C252.975 1133.67 255.796 1125.69 255.167 1115.66C254.738 1108.81 252.8 1102.94 249.353 1098.06C245.842 1093.12 241.013 1089.36 234.864 1086.78L238.799 1074.35C247.361 1077.61 254.176 1082.79 259.244 1089.88C264.249 1096.92 267.042 1105.07 267.623 1114.34ZM223.058 1153.86L212.164 1154.54L207.588 1081.47L218.483 1080.78L223.058 1153.86Z" fill="#2C3F2D"/>
<path d="M279.26 850.734C275.911 859.016 270.993 865.26 264.506 869.465C257.964 873.648 250.523 875.873 242.183 876.138C233.843 876.403 225.231 874.739 216.345 871.146C207.515 867.575 200.182 862.823 194.349 856.89C188.538 850.903 184.751 844.17 182.988 836.693C181.226 829.215 181.986 821.418 185.268 813.3C188.64 804.963 193.508 798.763 199.874 794.7C206.239 790.637 213.547 788.582 221.799 788.537C230.017 788.414 238.624 790.171 247.619 793.809C256.45 797.38 263.842 802.06 269.797 807.851C275.697 813.619 279.589 820.171 281.473 827.506C283.302 834.819 282.565 842.561 279.26 850.734ZM268.487 844.942C271.038 838.634 271.609 832.802 270.201 827.447C268.793 822.091 265.812 817.312 261.257 813.109C256.648 808.883 250.915 805.384 244.059 802.612C237.093 799.795 230.54 798.326 224.399 798.204C218.203 798.059 212.765 799.434 208.085 802.328C203.427 805.167 199.845 809.685 197.338 815.883C194.765 822.246 194.199 828.143 195.64 833.576C197.081 839.009 200.078 843.827 204.633 848.03C209.21 852.178 214.844 855.605 221.535 858.311C228.282 861.039 234.78 862.487 241.031 862.653C247.249 862.742 252.753 861.362 257.543 858.513C262.333 855.663 265.981 851.14 268.487 844.942ZM288.569 820.611L221.681 793.563L221.148 794.879L169.563 774.019L174.487 761.842L292.961 809.751L288.569 820.611Z" fill="#2C3F2D"/>
</g>
<defs>
<clipPath id="clip0_3833_2417">
<rect width="2000" height="2000" fill="white"/>
</clipPath>
</defs>
</svg>
