<svg width="145" height="145" viewBox="0 0 145 145" fill="none" xmlns="http://www.w3.org/2000/svg">
<g clip-path="url(#clip0_827_639)">
<path d="M107.694 68.7729C107.702 68.8768 107.716 68.988 107.731 69.0919C107.828 70.1528 107.88 71.2434 107.88 72.3118C107.88 91.6978 92.1058 107.471 72.7187 107.471C53.3315 107.471 37.5577 91.6978 37.5577 72.3118C37.5577 52.9258 53.3315 37.1528 72.7187 37.1528C83.2321 37.1528 93.1149 41.8046 99.8221 49.9136C99.8963 50.0027 99.9631 50.0917 100.03 50.1733L105.068 45.1432C97.0101 35.5577 85.2428 30.0676 72.7187 30.0676C49.4214 30.0676 30.472 49.0159 30.472 72.3118C30.472 95.6077 49.4214 114.556 72.7187 114.556C96.0159 114.556 114.965 95.6077 114.965 72.3118C114.965 71.1322 114.913 69.9451 114.809 68.7655H107.694V68.7729Z" fill="#2C3F2D"/>
<path d="M101.521 69.0326H80.8282L95.4446 54.417L90.7777 49.743L76.1539 64.366V43.689H69.5505V64.366L54.9267 49.743L50.2524 54.417L64.8762 69.0326H44.1981V75.643H69.5505V101.58H76.1539V75.643H101.521V69.0326Z" fill="#2C3F2D"/>
<path d="M74.4919 124.075H71.2199V127.346H74.4919V124.075Z" fill="#2C3F2D"/>
<path d="M26.4559 44.628L24.8199 47.4615L27.6535 49.0974L29.2895 46.264L26.4559 44.628Z" fill="#2C3F2D"/>
<path d="M118.556 43.9158L115.723 45.5517L117.359 48.3852L120.192 46.7492L118.556 43.9158Z" fill="#2C3F2D"/>
<path d="M72.7112 136.027C37.5799 136.027 9 107.448 9 72.3192C9 37.1899 37.5799 8.60426 72.7112 8.60426C107.843 8.60426 136.422 37.1825 136.422 72.3192C136.422 107.456 107.843 136.027 72.7112 136.027ZM72.7112 10.0881C38.4035 10.0881 10.4839 38.006 10.4839 72.3192C10.4839 106.632 38.4035 134.543 72.7112 134.543C107.019 134.543 134.939 106.625 134.939 72.3192C134.939 38.0134 107.026 10.0881 72.7112 10.0881Z" fill="#2C3F2D"/>
<path d="M59.0613 118.186L56.1424 126.206L53.0459 125.079C52.968 125.05 52.8821 125.015 52.7883 124.972C52.6894 124.932 52.5932 124.885 52.4997 124.829C52.1031 124.614 51.8019 124.338 51.5961 124.002C51.3852 123.669 51.2684 123.303 51.2455 122.903C51.219 122.503 51.282 122.093 51.4347 121.673C51.655 121.068 52.0059 120.601 52.4873 120.271C52.9688 119.942 53.5275 119.828 54.1635 119.929L54.4718 119.966L57.1339 120.935L58.2427 117.888L59.0613 118.186ZM54.205 116.419L54.5988 120.258L53.7041 120.273L53.2638 116.076L54.205 116.419ZM56.8501 121.714L54.5946 120.893C54.5277 120.869 54.4484 120.844 54.3566 120.819C54.2648 120.794 54.1728 120.776 54.0807 120.763C53.7843 120.722 53.5185 120.754 53.2831 120.857C53.0441 120.96 52.84 121.11 52.6708 121.309C52.498 121.507 52.3662 121.73 52.2757 121.979C52.1852 122.228 52.1425 122.484 52.1479 122.746C52.1481 123.011 52.207 123.26 52.3244 123.492C52.4381 123.722 52.6215 123.917 52.8746 124.077C52.9532 124.126 53.0364 124.169 53.1242 124.205C53.2106 124.245 53.2872 124.277 53.354 124.302L55.6096 125.123L56.8501 121.714Z" fill="#2C3F2D"/>
<path d="M47.3118 112.644C47.8403 112.976 48.2251 113.381 48.466 113.859C48.7036 114.335 48.796 114.853 48.7431 115.412C48.6903 115.972 48.4841 116.537 48.1246 117.109C47.7526 117.701 47.3256 118.147 46.8436 118.446C46.3617 118.745 45.8565 118.892 45.3279 118.887C44.7961 118.879 44.2692 118.711 43.7473 118.384C43.212 118.047 42.8331 117.637 42.6106 117.151C42.386 116.67 42.3207 116.139 42.4147 115.558C42.5086 114.978 42.7637 114.375 43.1798 113.75L43.9325 114.223L43.7686 114.484C43.3405 115.195 43.1595 115.821 43.2257 116.362C43.2885 116.901 43.5975 117.345 44.1529 117.693C44.735 118.059 45.3004 118.151 45.849 117.968C46.3944 117.784 46.8867 117.342 47.326 116.643C47.7549 115.96 47.9342 115.333 47.8639 114.762C47.7882 114.191 47.466 113.728 46.8973 113.37C46.5092 113.127 46.1156 113.003 45.7165 112.999C45.3119 112.997 44.9198 113.112 44.5402 113.345L44.0199 112.647C44.5304 112.31 45.0767 112.142 45.6588 112.144C46.2355 112.147 46.7865 112.314 47.3118 112.644ZM47.7163 116.601L47.3284 117.218L43.1884 114.617L43.5762 113.999L47.7163 116.601Z" fill="#2C3F2D"/>
<path d="M39.8185 107.095L37.0124 113.299L36.3802 112.682L38.7015 107.595L33.6819 110.051L33.0412 109.426L39.1736 106.466L39.8185 107.095Z" fill="#2C3F2D"/>
<path d="M26.8673 103.554L26.0526 104.095L25.5708 103.369L26.3856 102.828L26.8673 103.554ZM33.2127 99.3426L27.8796 102.882L27.3979 102.156L32.731 98.6167L33.2127 99.3426Z" fill="#2C3F2D"/>
<path d="M28.5531 90.1672C28.7812 90.7483 28.8502 91.3027 28.7602 91.8304C28.6687 92.3544 28.4356 92.8258 28.0609 93.2445C27.6862 93.6632 27.1844 93.996 26.5554 94.2428C25.9044 94.4983 25.2962 94.6033 24.7309 94.5578C24.1655 94.5123 23.6717 94.3304 23.2497 94.0122C22.8263 93.6903 22.502 93.2424 22.2768 92.6687C22.0458 92.0802 21.9849 91.5247 22.0939 91.0023C22.1993 90.4813 22.4621 90.0153 22.8822 89.6042C23.3024 89.1931 23.8655 88.8597 24.5715 88.6038L24.8963 89.4313L24.6094 89.5439C23.8428 89.8618 23.3255 90.2579 23.0576 90.7323C22.7882 91.2031 22.7733 91.7437 23.0129 92.3543C23.2641 92.9943 23.6646 93.4037 24.2144 93.5826C24.7628 93.7579 25.4214 93.6947 26.1901 93.393C26.9404 93.0985 27.457 92.7006 27.7398 92.1991C28.0174 91.6954 28.0336 91.1309 27.7882 90.5056C27.6208 90.079 27.3775 89.7457 27.0584 89.5059C26.7342 89.2639 26.3503 89.1238 25.9067 89.0857L25.9024 88.2152C26.5134 88.247 27.0526 88.4365 27.5199 88.7837C27.9821 89.1286 28.3265 89.5898 28.5531 90.1672ZM26.5289 93.5911L25.8503 93.8574L24.064 89.306L24.7426 89.0396L26.5289 93.5911Z" fill="#2C3F2D"/>
<path d="M26.1147 83.0773L20.1076 86.0412L19.9729 85.1805L24.6353 82.8808L19.4823 82.18L19.3541 81.3962L24.0156 79.0907L18.8616 78.384L18.722 77.53L25.3545 78.4274L25.4769 79.1761L20.705 81.5777L25.9923 82.3286L26.1147 83.0773Z" fill="#2C3F2D"/>
<path d="M25.307 70.7354C25.2759 71.3588 25.1108 71.8926 24.8117 72.3365C24.5128 72.7766 24.1065 73.1104 23.5928 73.3379C23.079 73.5654 22.4847 73.6624 21.8099 73.6287C21.1114 73.5938 20.5139 73.4394 20.0172 73.1654C19.5206 72.8914 19.1454 72.5225 18.8916 72.0589C18.638 71.5913 18.5266 71.0497 18.5573 70.4341C18.5888 69.8027 18.7617 69.2713 19.076 68.84C19.3863 68.4084 19.8175 68.0917 20.3695 67.8898C20.9216 67.6879 21.572 67.6156 22.3208 67.6727L22.2765 68.5606L21.9687 68.5452C21.1392 68.5197 20.5048 68.668 20.0654 68.9902C19.6262 69.3085 19.3903 69.7952 19.3576 70.4503C19.3233 71.1369 19.52 71.6749 19.9476 72.0641C20.3754 72.4494 21.0016 72.6626 21.8264 72.7038C22.6314 72.744 23.2659 72.5937 23.73 72.2529C24.1903 71.908 24.4372 71.4001 24.4706 70.7292C24.4935 70.2715 24.4088 69.8677 24.2166 69.5179C24.0206 69.1639 23.7283 68.8783 23.3396 68.6611L23.6938 67.8659C24.2376 68.1462 24.6511 68.5407 24.9343 69.0493C25.2137 69.5538 25.3379 70.1158 25.307 70.7354ZM22.0537 73.0237L21.3257 72.9874L21.5694 68.104L22.2975 68.1403L22.0537 73.0237Z" fill="#2C3F2D"/>
<path d="M26.7501 61.1614C26.5956 61.7377 26.3206 62.1917 25.925 62.5234C25.5255 62.854 25.0504 63.0621 24.4998 63.1478C23.9492 63.2334 23.3648 63.1934 22.7465 63.0277C22.1321 62.8631 21.6073 62.6079 21.1723 62.2623C20.7382 61.9128 20.4323 61.4975 20.2545 61.0162C20.0766 60.535 20.0634 60.012 20.2147 59.4471C20.3702 58.867 20.6423 58.4164 21.031 58.0951C21.4198 57.7739 21.8874 57.5781 22.434 57.5077C22.9777 57.4325 23.5625 57.4788 24.1884 57.6465C24.8029 57.8111 25.331 58.0611 25.773 58.3963C26.2111 58.7305 26.5225 59.133 26.7073 59.6038C26.8882 60.0736 26.9024 60.5928 26.7501 61.1614ZM25.9888 60.8654C26.1064 60.4265 26.0967 60.0353 25.9596 59.6918C25.8226 59.3483 25.586 59.0559 25.2498 58.8145C24.9099 58.572 24.5013 58.3869 24.0243 58.259C23.5396 58.1292 23.0932 58.0852 22.6852 58.1273C22.2733 58.1682 21.9241 58.3037 21.6375 58.5337C21.3519 58.7599 21.1514 59.0886 21.0358 59.5199C20.9172 59.9626 20.9278 60.3581 21.0676 60.7065C21.2074 61.0548 21.4454 61.3497 21.7816 61.5911C22.1188 61.8287 22.5202 62.0099 22.9858 62.1346C23.4552 62.2604 23.8978 62.3033 24.3134 62.2634C24.7263 62.2186 25.0799 62.0822 25.3741 61.8542C25.6683 61.6263 25.8732 61.2967 25.9888 60.8654ZM27.1213 59.0889L22.4672 57.8418L22.4426 57.9334L18.8532 56.9716L19.0803 56.1244L27.3238 58.3332L27.1213 59.0889Z" fill="#2C3F2D"/>
<path d="M39.4519 38.2463L33.8528 31.8053L36.3397 29.6435C36.4024 29.5891 36.475 29.5311 36.5577 29.4697C36.6408 29.4027 36.7291 29.3416 36.8226 29.2866C37.2036 29.0443 37.5908 28.9146 37.9841 28.8973C38.3778 28.8744 38.7548 28.9498 39.1152 29.1234C39.4785 29.2944 39.8066 29.5484 40.0995 29.8854C40.522 30.3714 40.7606 30.9048 40.8152 31.4856C40.8698 32.0664 40.6988 32.6103 40.302 33.1175L40.1205 33.3695L37.9825 35.2281L40.1094 37.6747L39.4519 38.2463ZM43.3522 34.8558L39.8034 33.3389L40.2241 32.5491L44.1081 34.1986L43.3522 34.8558ZM37.4382 34.6018L39.2497 33.0271C39.3033 32.9805 39.3634 32.923 39.4298 32.8549C39.4961 32.7867 39.5571 32.7153 39.6128 32.6408C39.792 32.4013 39.8933 32.1535 39.9168 31.8975C39.9433 31.6389 39.9105 31.3873 39.8183 31.1428C39.7292 30.8957 39.5978 30.6723 39.4241 30.4725C39.2504 30.2727 39.0475 30.1115 38.8152 29.9888C38.5833 29.8606 38.3375 29.7916 38.0777 29.7818C37.8209 29.7695 37.5614 29.8353 37.2993 29.9794C37.2177 30.0242 37.1399 30.0761 37.0657 30.1354C36.989 30.1916 36.9238 30.2431 36.8701 30.2897L35.0586 31.8644L37.4382 34.6018Z" fill="#2C3F2D"/>
<path d="M49.9945 30.6599C49.4477 30.9611 48.9069 31.1013 48.372 31.0802C47.8406 31.0573 47.343 30.8871 46.8794 30.5697C46.4157 30.2522 46.0209 29.7977 45.6948 29.2059C45.3573 28.5934 45.1745 28.0039 45.1465 27.4374C45.1185 26.8708 45.2351 26.3578 45.4961 25.8981C45.7605 25.4366 46.1627 25.0571 46.7025 24.7596C47.2562 24.4545 47.7991 24.3223 48.3312 24.3629C48.8615 24.4 49.3576 24.6003 49.8195 24.9638C50.2815 25.3273 50.685 25.8425 51.03 26.5095L50.2514 26.9386L50.1026 26.6687C49.6883 25.9496 49.2286 25.4879 48.7235 25.2835C48.2219 25.0772 47.6839 25.1324 47.1094 25.4489C46.5073 25.7807 46.1531 26.2308 46.0467 26.7992C45.9438 27.3657 46.0917 28.0105 46.4902 28.7337C46.8792 29.4397 47.3407 29.9004 47.8745 30.116C48.4099 30.3263 48.9717 30.2693 49.56 29.9451C49.9614 29.7239 50.2604 29.4396 50.4569 29.0922C50.655 28.7395 50.7443 28.3407 50.7247 27.8958L51.5874 27.779C51.6348 28.389 51.5166 28.9481 51.2328 29.4564C50.9505 29.9593 50.5378 30.3605 49.9945 30.6599ZM46.3376 29.0953L45.9858 28.4569L50.2681 26.0971L50.6199 26.7355L46.3376 29.0953Z" fill="#2C3F2D"/>
<path d="M58.4772 26.796L54.4113 21.3339L55.2571 21.0799L58.5814 25.5767L58.8672 19.9958L59.7243 19.7385L59.34 26.537L58.4772 26.796Z" fill="#2C3F2D"/>
<path d="M67.8543 17.1872L67.7764 16.2124L68.6448 16.143L68.7228 17.1178L67.8543 17.1872ZM68.4613 24.7787L67.9512 18.3983L68.8196 18.3289L69.3297 24.7093L68.4613 24.7787Z" fill="#2C3F2D"/>
<path d="M78.747 25.1519C78.1282 25.0696 77.6099 24.8612 77.192 24.5267C76.778 24.1926 76.4787 23.7602 76.2942 23.2295C76.1096 22.6988 76.0619 22.0985 76.1509 21.4288C76.2431 20.7356 76.4461 20.1527 76.76 19.6803C77.0739 19.2078 77.4723 18.8642 77.9553 18.6494C78.4421 18.4351 78.9911 18.3685 79.602 18.4498C80.2287 18.5331 80.7441 18.749 81.1481 19.0977C81.5527 19.4424 81.8329 19.8982 81.9887 20.465C82.1446 21.0317 82.1633 21.6859 82.0448 22.4275L81.1635 22.3103L81.2041 22.0048C81.2978 21.1803 81.2021 20.5358 80.917 20.0714C80.6359 19.6076 80.1703 19.3324 79.5201 19.246C78.8386 19.1554 78.2863 19.3072 77.8633 19.7014C77.4441 20.096 77.1801 20.7027 77.0713 21.5212C76.9651 22.3202 77.0628 22.965 77.3643 23.4555C77.6702 23.9425 78.1561 24.2303 78.8219 24.3188C79.2762 24.3792 79.6856 24.328 80.05 24.1652C80.4189 23.999 80.7275 23.7311 80.9759 23.3616L81.7394 23.7799C81.4153 24.2989 80.9882 24.6785 80.458 24.919C79.9323 25.156 79.362 25.2336 78.747 25.1519ZM76.7338 21.7215L76.8298 20.9989L81.6767 21.6432L81.5806 22.3658L76.7338 21.7215Z" fill="#2C3F2D"/>
<path d="M86.1319 26.4582L86.4519 19.7673L87.2701 20.0668L87.021 25.2596L90.1322 21.0924L90.8798 21.3603L90.6364 26.5551L93.7532 22.3899L94.5677 22.6818L90.5674 28.0476L89.8533 27.7917L90.0662 22.4538L86.8461 26.7141L86.1319 26.4582Z" fill="#2C3F2D"/>
<path d="M97.3207 31.7322C96.7904 31.4027 96.4037 30.9995 96.1604 30.5227C95.9204 30.048 95.8255 29.5308 95.8755 28.9711C95.9256 28.4114 96.1289 27.8447 96.4855 27.2708C96.8547 26.6768 97.2794 26.229 97.7599 25.9275C98.2403 25.626 98.7448 25.4766 99.2734 25.4794C99.8053 25.4844 100.333 25.6495 100.857 25.9748C101.393 26.3085 101.774 26.7173 101.999 27.2013C102.226 27.6819 102.294 28.2126 102.203 28.7933C102.112 29.374 101.86 29.978 101.447 30.6052L100.692 30.1359L100.855 29.8742C101.279 29.1611 101.457 28.5343 101.388 27.9938C101.323 27.4554 101.011 27.013 100.454 26.6669C99.8704 26.304 99.3046 26.2152 98.7568 26.4005C98.2124 26.5879 97.7223 27.0322 97.2865 27.7336C96.861 28.4182 96.6849 29.0461 96.758 29.6171C96.8365 30.187 97.161 30.6491 97.7315 31.0036C98.1208 31.2455 98.515 31.3672 98.9142 31.3687C99.3187 31.3689 99.7102 31.2517 100.089 31.017L100.613 31.7124C100.104 32.0521 99.5582 32.2225 98.9761 32.2236C98.3994 32.2234 97.8476 32.0596 97.3207 31.7322ZM96.8965 27.7773L97.2812 27.1582L101.434 29.7389L101.049 30.358L96.8965 27.7773Z" fill="#2C3F2D"/>
<path d="M104.99 37.636C104.561 37.2216 104.297 36.761 104.199 36.2541C104.104 35.7444 104.152 35.2281 104.344 34.705C104.536 34.1819 104.854 33.6901 105.299 33.2297C105.741 32.7721 106.218 32.4368 106.732 32.2239C107.248 32.0137 107.759 31.9475 108.266 32.0253C108.774 32.103 109.237 32.345 109.658 32.7512C110.09 33.1684 110.352 33.6249 110.445 34.1207C110.537 34.6164 110.482 35.1204 110.278 35.6325C110.081 36.1445 109.757 36.6335 109.306 37.0997C108.865 37.5572 108.39 37.898 107.882 38.1221C107.378 38.3432 106.875 38.4205 106.373 38.3538C105.875 38.2842 105.414 38.045 104.99 37.636ZM105.618 37.1137C105.945 37.4294 106.292 37.6105 106.659 37.6572C107.026 37.7039 107.396 37.6388 107.77 37.4618C108.147 37.282 108.507 37.0144 108.85 36.6591C109.199 36.2982 109.454 35.9291 109.615 35.5518C109.779 35.1718 109.829 34.8006 109.767 34.4385C109.708 34.079 109.518 33.7442 109.196 33.4341C108.867 33.1157 108.516 32.9332 108.143 32.8866C107.771 32.8401 107.397 32.9053 107.023 33.0822C106.652 33.262 106.299 33.5252 105.964 33.8719C105.626 34.2215 105.374 34.5878 105.208 34.9707C105.047 35.3535 104.995 35.7289 105.051 36.0967C105.108 36.4646 105.297 36.8036 105.618 37.1137ZM106.623 38.9656L109.97 35.4995L109.902 35.4337L112.483 32.7606L113.114 33.3699L107.186 39.509L106.623 38.9656Z" fill="#2C3F2D"/>
<path d="M120.008 60.3581L128.386 58.7296L129.014 61.9643C129.03 62.0457 129.044 62.1376 129.056 62.24C129.072 62.3455 129.081 62.4524 129.082 62.5609C129.101 63.012 129.02 63.4122 128.838 63.7615C128.661 64.1139 128.408 64.4027 128.077 64.6279C127.747 64.8571 127.363 65.0142 126.925 65.0994C126.293 65.2223 125.712 65.1622 125.181 64.9191C124.651 64.676 124.265 64.2559 124.025 63.6587L123.897 63.3756L123.357 60.5947L120.174 61.2133L120.008 60.3581ZM120.994 65.4311L124.082 63.1162L124.556 63.8755L121.185 66.4143L120.994 65.4311ZM124.171 60.4364L124.629 62.7926C124.643 62.8624 124.662 62.9431 124.688 63.0346C124.714 63.1262 124.745 63.2147 124.782 63.3002C124.9 63.5751 125.064 63.7868 125.274 63.9351C125.484 64.0874 125.719 64.1847 125.977 64.2272C126.235 64.2735 126.494 64.2714 126.754 64.2209C127.014 64.1704 127.255 64.0753 127.478 63.9354C127.705 63.7987 127.887 63.6203 128.026 63.4002C128.165 63.184 128.237 62.9264 128.244 62.6273C128.246 62.5343 128.24 62.4409 128.225 62.3471C128.215 62.2525 128.203 62.1703 128.189 62.1005L127.731 59.7443L124.171 60.4364Z" fill="#2C3F2D"/>
<path d="M121.307 73.2818C121.319 72.6577 121.468 72.1192 121.754 71.6665C122.039 71.2178 122.436 70.872 122.942 70.6292C123.449 70.3863 124.04 70.2717 124.716 70.2851C125.415 70.2991 126.017 70.4356 126.521 70.6946C127.026 70.9537 127.412 71.3111 127.68 71.7669C127.947 72.2267 128.075 72.7648 128.062 73.381C128.05 74.0131 127.893 74.5494 127.592 74.9899C127.294 75.4305 126.873 75.76 126.327 75.9783C125.781 76.1967 125.133 76.2885 124.383 76.2537L124.401 75.3649L124.709 75.3711C125.539 75.3718 126.169 75.2046 126.598 74.8693C127.028 74.538 127.249 74.0445 127.262 73.3888C127.276 72.7014 127.063 72.1696 126.624 71.7933C126.185 71.421 125.553 71.2266 124.727 71.2101C123.921 71.194 123.291 71.3633 122.838 71.7178C122.388 72.0763 122.156 72.5914 122.143 73.2629C122.134 73.7212 122.231 74.1222 122.433 74.4661C122.64 74.8141 122.94 75.0908 123.335 75.2962L123.005 76.1018C122.453 75.8378 122.028 75.4559 121.73 74.956C121.435 74.4601 121.294 73.902 121.307 73.2818ZM124.49 70.8971L125.219 70.9117L125.121 75.8002L124.393 75.7856L124.49 70.8971Z" fill="#2C3F2D"/>
<path d="M120.413 82.563L127.176 81.7729L126.974 82.6323L121.417 83.2629L126.107 86.3008L125.902 87.1717L120.206 83.4397L120.413 82.563Z" fill="#2C3F2D"/>
<path d="M124.047 95.4873L124.93 95.9072L124.556 96.694L123.673 96.2741L124.047 95.4873ZM117.169 92.2172L122.95 94.9656L122.576 95.7525L116.795 93.004L117.169 92.2172Z" fill="#2C3F2D"/>
<path d="M111.705 100.936C112.085 100.441 112.525 100.096 113.024 99.9015C113.52 99.71 114.044 99.667 114.596 99.7726C115.148 99.8781 115.691 100.137 116.227 100.549C116.781 100.975 117.184 101.443 117.437 101.951C117.689 102.459 117.787 102.976 117.732 103.501C117.674 104.03 117.457 104.539 117.081 105.027C116.696 105.528 116.251 105.867 115.747 106.042C115.246 106.22 114.711 106.235 114.143 106.086C113.574 105.938 112.998 105.627 112.415 105.154L112.957 104.449L113.201 104.637C113.869 105.13 114.475 105.37 115.019 105.355C115.562 105.344 116.033 105.078 116.433 104.558C116.852 104.013 116.997 103.459 116.867 102.896C116.735 102.335 116.341 101.803 115.687 101.3C115.048 100.808 114.441 100.57 113.865 100.586C113.29 100.608 112.798 100.885 112.389 101.417C112.109 101.78 111.949 102.16 111.908 102.557C111.867 102.96 111.945 103.361 112.141 103.761L111.397 104.213C111.109 103.673 110.994 103.113 111.051 102.534C111.108 101.96 111.326 101.427 111.705 100.936ZM115.682 100.907L116.26 101.352L113.278 105.227L112.701 104.783L115.682 100.907Z" fill="#2C3F2D"/>
<path d="M106.879 106.675L112.514 110.298L111.845 110.857L107.473 108.044L109.526 112.822L108.92 113.336L104.543 110.528L106.592 115.31L105.932 115.869L103.285 109.722L103.864 109.231L108.38 112.085L106.301 107.166L106.879 106.675Z" fill="#2C3F2D"/>
<path d="M96.717 113.728C97.2675 113.433 97.81 113.3 98.3446 113.328C98.8757 113.357 99.3711 113.534 99.8308 113.857C100.29 114.18 100.68 114.64 100.998 115.235C101.328 115.852 101.503 116.444 101.524 117.011C101.545 117.577 101.422 118.089 101.156 118.545C100.885 119.003 100.479 119.378 99.9351 119.669C99.3777 119.967 98.8332 120.092 98.3016 120.045C97.7719 120.001 97.2783 119.795 96.8209 119.426C96.3635 119.056 95.9665 118.536 95.6299 117.865L96.4137 117.446L96.5591 117.717C96.9644 118.442 97.4183 118.909 97.9208 119.12C98.4198 119.332 98.9585 119.284 99.5369 118.974C100.143 118.65 100.503 118.204 100.616 117.637C100.726 117.072 100.586 116.426 100.197 115.698C99.8168 114.987 99.3612 114.52 98.83 114.298C98.2973 114.081 97.7348 114.131 97.1425 114.448C96.7384 114.664 96.4359 114.945 96.235 115.29C96.0326 115.64 95.9384 116.038 95.9524 116.483L95.0883 116.589C95.0485 115.978 95.1736 115.42 95.4638 114.916C95.7523 114.416 96.17 114.02 96.717 113.728ZM100.354 115.338L100.698 115.981L96.3865 118.287L96.0427 117.644L100.354 115.338Z" fill="#2C3F2D"/>
<path d="M87.7641 117.421C88.3376 117.257 88.8684 117.259 89.3565 117.427C89.8456 117.599 90.2687 117.899 90.6257 118.327C90.9826 118.755 91.2494 119.276 91.4258 119.892C91.6011 120.503 91.6527 121.084 91.5805 121.635C91.5045 122.187 91.306 122.664 90.9851 123.064C90.6642 123.464 90.2227 123.745 89.6606 123.906C89.0833 124.072 88.5569 124.07 88.0813 123.903C87.6057 123.735 87.197 123.435 86.8552 123.003C86.5107 122.575 86.2492 122.05 86.0706 121.427C85.8952 120.816 85.8374 120.234 85.8971 119.683C85.9579 119.135 86.1426 118.661 86.451 118.26C86.7605 117.863 87.1982 117.583 87.7641 117.421ZM87.9025 118.226C87.4657 118.351 87.1354 118.561 86.9115 118.856C86.6876 119.15 86.5588 119.503 86.525 119.916C86.4923 120.332 86.544 120.778 86.6801 121.253C86.8185 121.735 87.0107 122.14 87.2569 122.468C87.5041 122.8 87.8001 123.03 88.1449 123.157C88.4858 123.285 88.8709 123.288 89.3001 123.165C89.7406 123.038 90.0742 122.826 90.3008 122.526C90.5274 122.227 90.6575 121.871 90.6913 121.459C90.7213 121.047 90.6699 120.61 90.537 120.147C90.4031 119.679 90.2119 119.278 89.9636 118.942C89.7125 118.611 89.4135 118.379 89.0666 118.244C88.7197 118.109 88.3316 118.103 87.9025 118.226ZM85.7964 118.17L87.1245 122.802L87.2156 122.776L88.2399 126.348L87.3967 126.59L85.0444 118.386L85.7964 118.17Z" fill="#2C3F2D"/>
</g>
<defs>
<clipPath id="clip0_827_639">
<rect width="145" height="145" fill="white"/>
</clipPath>
</defs>
</svg>
